<mxfile host="app.diagrams.net" modified="2024-03-24T02:15:39.894Z" agent="Mozilla/5.0 (Windows NT 10.0; Win64; x64; rv:124.0) Gecko/20100101 Firefox/124.0" etag="sCHrALhAo4C88cLGVcsJ" version="24.0.7" type="github">
  <diagram name="Page-1" id="ad52d381-51e7-2e0d-a935-2d0ddd2fd229">
    <mxGraphModel dx="1818" dy="1817" grid="1" gridSize="10" guides="1" tooltips="1" connect="1" arrows="1" fold="1" page="1" pageScale="1" pageWidth="1100" pageHeight="850" background="none" math="0" shadow="0">
      <root>
        <mxCell id="0" />
        <mxCell id="1" parent="0" />
        <mxCell id="2c924340bb9dbf6c-1" value="Socialize" style="whiteSpace=wrap;html=1;rounded=1;shadow=1;comic=0;labelBackgroundColor=none;strokeWidth=2;fontFamily=Verdana;fontSize=12;align=center;arcSize=50;" parent="1" vertex="1">
          <mxGeometry x="290" y="190" width="100" height="20" as="geometry" />
        </mxCell>
        <mxCell id="2c924340bb9dbf6c-2" value="Work" style="ellipse;whiteSpace=wrap;html=1;rounded=1;shadow=1;comic=0;labelBackgroundColor=none;strokeWidth=2;fontFamily=Verdana;fontSize=12;align=center;" parent="1" vertex="1">
          <mxGeometry x="360" y="60" width="120" height="80" as="geometry" />
        </mxCell>
        <mxCell id="UxoyAw1FXWE8Ad-K0um6-47" style="edgeStyle=none;rounded=1;orthogonalLoop=1;jettySize=auto;html=1;strokeColor=#B3B3B3;strokeWidth=1;align=center;verticalAlign=middle;fontFamily=Verdana;fontSize=12;fontColor=default;labelBackgroundColor=none;startArrow=none;startFill=0;startSize=5;endArrow=classicThin;endFill=1;endSize=5;" parent="1" source="2c924340bb9dbf6c-4" target="UxoyAw1FXWE8Ad-K0um6-46" edge="1">
          <mxGeometry relative="1" as="geometry">
            <mxPoint x="869.9971447606258" y="344.41466200233526" as="sourcePoint" />
          </mxGeometry>
        </mxCell>
        <mxCell id="mSaFIu4NPNJzYI9R8o-n-14" style="edgeStyle=none;rounded=1;orthogonalLoop=1;jettySize=auto;html=1;strokeColor=#B3B3B3;strokeWidth=1;align=center;verticalAlign=middle;fontFamily=Verdana;fontSize=12;fontColor=default;labelBackgroundColor=none;startArrow=none;startFill=0;startSize=5;endArrow=classicThin;endFill=1;endSize=5;" edge="1" parent="1" source="2c924340bb9dbf6c-4" target="mSaFIu4NPNJzYI9R8o-n-13">
          <mxGeometry relative="1" as="geometry" />
        </mxCell>
        <mxCell id="2c924340bb9dbf6c-4" value="&lt;div&gt;NPC&lt;/div&gt;&lt;div&gt;Routine&lt;br&gt;&lt;/div&gt;" style="ellipse;whiteSpace=wrap;html=1;rounded=1;shadow=1;comic=0;labelBackgroundColor=none;strokeWidth=2;fontFamily=Verdana;fontSize=12;align=center;" parent="1" vertex="1">
          <mxGeometry x="840" y="210" width="120" height="120" as="geometry" />
        </mxCell>
        <mxCell id="UxoyAw1FXWE8Ad-K0um6-15" style="edgeStyle=none;rounded=1;orthogonalLoop=1;jettySize=auto;html=1;strokeColor=#B3B3B3;strokeWidth=1;align=center;verticalAlign=middle;fontFamily=Verdana;fontSize=12;fontColor=default;labelBackgroundColor=none;startArrow=none;startFill=0;startSize=5;endArrow=classicThin;endFill=1;endSize=5;" parent="1" source="2c924340bb9dbf6c-5" target="UxoyAw1FXWE8Ad-K0um6-13" edge="1">
          <mxGeometry relative="1" as="geometry" />
        </mxCell>
        <mxCell id="UxoyAw1FXWE8Ad-K0um6-17" style="edgeStyle=none;rounded=1;orthogonalLoop=1;jettySize=auto;html=1;strokeColor=#B3B3B3;strokeWidth=1;align=center;verticalAlign=middle;fontFamily=Verdana;fontSize=12;fontColor=default;labelBackgroundColor=none;startArrow=none;startFill=0;startSize=5;endArrow=classicThin;endFill=1;endSize=5;" parent="1" source="2c924340bb9dbf6c-5" target="UxoyAw1FXWE8Ad-K0um6-16" edge="1">
          <mxGeometry relative="1" as="geometry" />
        </mxCell>
        <mxCell id="UxoyAw1FXWE8Ad-K0um6-19" style="edgeStyle=none;rounded=1;orthogonalLoop=1;jettySize=auto;html=1;strokeColor=#B3B3B3;strokeWidth=1;align=center;verticalAlign=middle;fontFamily=Verdana;fontSize=12;fontColor=default;labelBackgroundColor=none;startArrow=none;startFill=0;startSize=5;endArrow=classicThin;endFill=1;endSize=5;" parent="1" source="2c924340bb9dbf6c-5" target="UxoyAw1FXWE8Ad-K0um6-18" edge="1">
          <mxGeometry relative="1" as="geometry" />
        </mxCell>
        <mxCell id="UxoyAw1FXWE8Ad-K0um6-22" style="edgeStyle=none;rounded=1;orthogonalLoop=1;jettySize=auto;html=1;strokeColor=#B3B3B3;strokeWidth=1;align=center;verticalAlign=middle;fontFamily=Verdana;fontSize=12;fontColor=default;labelBackgroundColor=none;startArrow=none;startFill=0;startSize=5;endArrow=classicThin;endFill=1;endSize=5;" parent="1" source="2c924340bb9dbf6c-5" target="UxoyAw1FXWE8Ad-K0um6-21" edge="1">
          <mxGeometry relative="1" as="geometry" />
        </mxCell>
        <mxCell id="UxoyAw1FXWE8Ad-K0um6-24" style="edgeStyle=none;rounded=1;orthogonalLoop=1;jettySize=auto;html=1;strokeColor=#B3B3B3;strokeWidth=1;align=center;verticalAlign=middle;fontFamily=Verdana;fontSize=12;fontColor=default;labelBackgroundColor=none;startArrow=none;startFill=0;startSize=5;endArrow=classicThin;endFill=1;endSize=5;" parent="1" source="2c924340bb9dbf6c-5" target="UxoyAw1FXWE8Ad-K0um6-23" edge="1">
          <mxGeometry relative="1" as="geometry" />
        </mxCell>
        <mxCell id="UxoyAw1FXWE8Ad-K0um6-27" style="edgeStyle=none;rounded=1;orthogonalLoop=1;jettySize=auto;html=1;strokeColor=#B3B3B3;strokeWidth=1;align=center;verticalAlign=middle;fontFamily=Verdana;fontSize=12;fontColor=default;labelBackgroundColor=none;startArrow=none;startFill=0;startSize=5;endArrow=classicThin;endFill=1;endSize=5;" parent="1" source="2c924340bb9dbf6c-5" target="UxoyAw1FXWE8Ad-K0um6-25" edge="1">
          <mxGeometry relative="1" as="geometry" />
        </mxCell>
        <mxCell id="UxoyAw1FXWE8Ad-K0um6-41" style="edgeStyle=none;rounded=1;orthogonalLoop=1;jettySize=auto;html=1;strokeColor=#B3B3B3;strokeWidth=1;align=center;verticalAlign=middle;fontFamily=Verdana;fontSize=12;fontColor=default;labelBackgroundColor=none;startArrow=none;startFill=0;startSize=5;endArrow=classicThin;endFill=1;endSize=5;" parent="1" source="2c924340bb9dbf6c-5" target="UxoyAw1FXWE8Ad-K0um6-40" edge="1">
          <mxGeometry relative="1" as="geometry" />
        </mxCell>
        <mxCell id="UxoyAw1FXWE8Ad-K0um6-43" style="edgeStyle=none;rounded=1;orthogonalLoop=1;jettySize=auto;html=1;strokeColor=#B3B3B3;strokeWidth=1;align=center;verticalAlign=middle;fontFamily=Verdana;fontSize=12;fontColor=default;labelBackgroundColor=none;startArrow=none;startFill=0;startSize=5;endArrow=classicThin;endFill=1;endSize=5;" parent="1" source="2c924340bb9dbf6c-5" target="UxoyAw1FXWE8Ad-K0um6-42" edge="1">
          <mxGeometry relative="1" as="geometry" />
        </mxCell>
        <mxCell id="UxoyAw1FXWE8Ad-K0um6-45" style="edgeStyle=none;rounded=1;orthogonalLoop=1;jettySize=auto;html=1;strokeColor=#B3B3B3;strokeWidth=1;align=center;verticalAlign=middle;fontFamily=Verdana;fontSize=12;fontColor=default;labelBackgroundColor=none;startArrow=none;startFill=0;startSize=5;endArrow=classicThin;endFill=1;endSize=5;" parent="1" source="2c924340bb9dbf6c-5" target="UxoyAw1FXWE8Ad-K0um6-44" edge="1">
          <mxGeometry relative="1" as="geometry" />
        </mxCell>
        <mxCell id="UxoyAw1FXWE8Ad-K0um6-49" style="edgeStyle=none;rounded=1;orthogonalLoop=1;jettySize=auto;html=1;strokeColor=#B3B3B3;strokeWidth=1;align=center;verticalAlign=middle;fontFamily=Verdana;fontSize=12;fontColor=default;labelBackgroundColor=none;startArrow=none;startFill=0;startSize=5;endArrow=classicThin;endFill=1;endSize=5;" parent="1" source="2c924340bb9dbf6c-5" target="UxoyAw1FXWE8Ad-K0um6-48" edge="1">
          <mxGeometry relative="1" as="geometry" />
        </mxCell>
        <mxCell id="2c924340bb9dbf6c-5" value="Free Time" style="ellipse;whiteSpace=wrap;html=1;rounded=1;shadow=1;comic=0;labelBackgroundColor=none;strokeWidth=2;fontFamily=Verdana;fontSize=12;align=center;" parent="1" vertex="1">
          <mxGeometry x="1230" y="560" width="120" height="80" as="geometry" />
        </mxCell>
        <mxCell id="2c924340bb9dbf6c-10" value="Break" style="whiteSpace=wrap;html=1;rounded=1;shadow=1;comic=0;labelBackgroundColor=none;strokeWidth=2;fontFamily=Verdana;fontSize=12;align=center;arcSize=50;" parent="1" vertex="1">
          <mxGeometry x="210" y="40" width="100" height="20" as="geometry" />
        </mxCell>
        <mxCell id="2c924340bb9dbf6c-27" value="" style="edgeStyle=none;rounded=1;html=1;labelBackgroundColor=none;startArrow=none;startFill=0;startSize=5;endArrow=classicThin;endFill=1;endSize=5;jettySize=auto;orthogonalLoop=1;strokeColor=#B3B3B3;strokeWidth=1;fontFamily=Verdana;fontSize=12" parent="1" source="2c924340bb9dbf6c-2" target="2c924340bb9dbf6c-10" edge="1">
          <mxGeometry relative="1" as="geometry" />
        </mxCell>
        <mxCell id="2c924340bb9dbf6c-28" value="" style="edgeStyle=none;rounded=1;html=1;labelBackgroundColor=none;startArrow=none;startFill=0;startSize=5;endArrow=classicThin;endFill=1;endSize=5;jettySize=auto;orthogonalLoop=1;strokeColor=#B3B3B3;strokeWidth=1;fontFamily=Verdana;fontSize=12" parent="1" source="2c924340bb9dbf6c-2" target="2c924340bb9dbf6c-1" edge="1">
          <mxGeometry relative="1" as="geometry" />
        </mxCell>
        <mxCell id="2c924340bb9dbf6c-31" value="" style="edgeStyle=none;rounded=1;html=1;labelBackgroundColor=none;startArrow=none;startFill=0;startSize=5;endArrow=classicThin;endFill=1;endSize=5;jettySize=auto;orthogonalLoop=1;strokeColor=#B3B3B3;strokeWidth=1;fontFamily=Verdana;fontSize=12" parent="1" source="2c924340bb9dbf6c-4" target="2c924340bb9dbf6c-2" edge="1">
          <mxGeometry relative="1" as="geometry" />
        </mxCell>
        <mxCell id="2c924340bb9dbf6c-32" value="" style="edgeStyle=none;rounded=1;html=1;labelBackgroundColor=none;startArrow=none;startFill=0;startSize=5;endArrow=classicThin;endFill=1;endSize=5;jettySize=auto;orthogonalLoop=1;strokeColor=#B3B3B3;strokeWidth=1;fontFamily=Verdana;fontSize=12" parent="1" source="2c924340bb9dbf6c-4" target="2c924340bb9dbf6c-3" edge="1">
          <mxGeometry relative="1" as="geometry" />
        </mxCell>
        <mxCell id="2c924340bb9dbf6c-33" value="" style="edgeStyle=none;rounded=1;html=1;labelBackgroundColor=none;startArrow=none;startFill=0;startSize=5;endArrow=classicThin;endFill=1;endSize=5;jettySize=auto;orthogonalLoop=1;strokeColor=#B3B3B3;strokeWidth=1;fontFamily=Verdana;fontSize=12" parent="1" source="2c924340bb9dbf6c-4" target="2c924340bb9dbf6c-5" edge="1">
          <mxGeometry relative="1" as="geometry" />
        </mxCell>
        <mxCell id="UxoyAw1FXWE8Ad-K0um6-35" style="edgeStyle=none;rounded=1;orthogonalLoop=1;jettySize=auto;html=1;strokeColor=#B3B3B3;strokeWidth=1;align=center;verticalAlign=middle;fontFamily=Verdana;fontSize=12;fontColor=default;labelBackgroundColor=none;startArrow=none;startFill=0;startSize=5;endArrow=classicThin;endFill=1;endSize=5;" parent="1" source="2c924340bb9dbf6c-55" target="UxoyAw1FXWE8Ad-K0um6-34" edge="1">
          <mxGeometry relative="1" as="geometry" />
        </mxCell>
        <mxCell id="UxoyAw1FXWE8Ad-K0um6-37" style="edgeStyle=none;rounded=1;orthogonalLoop=1;jettySize=auto;html=1;strokeColor=#B3B3B3;strokeWidth=1;align=center;verticalAlign=middle;fontFamily=Verdana;fontSize=12;fontColor=default;labelBackgroundColor=none;startArrow=none;startFill=0;startSize=5;endArrow=classicThin;endFill=1;endSize=5;" parent="1" source="2c924340bb9dbf6c-55" target="UxoyAw1FXWE8Ad-K0um6-36" edge="1">
          <mxGeometry relative="1" as="geometry">
            <mxPoint x="620" y="-40" as="targetPoint" />
          </mxGeometry>
        </mxCell>
        <mxCell id="UxoyAw1FXWE8Ad-K0um6-39" style="edgeStyle=none;rounded=1;orthogonalLoop=1;jettySize=auto;html=1;strokeColor=#B3B3B3;strokeWidth=1;align=center;verticalAlign=middle;fontFamily=Verdana;fontSize=12;fontColor=default;labelBackgroundColor=none;startArrow=none;startFill=0;startSize=5;endArrow=classicThin;endFill=1;endSize=5;" parent="1" source="2c924340bb9dbf6c-55" target="UxoyAw1FXWE8Ad-K0um6-38" edge="1">
          <mxGeometry relative="1" as="geometry" />
        </mxCell>
        <mxCell id="UxoyAw1FXWE8Ad-K0um6-54" style="edgeStyle=none;rounded=1;orthogonalLoop=1;jettySize=auto;html=1;strokeColor=#B3B3B3;strokeWidth=1;align=center;verticalAlign=middle;fontFamily=Verdana;fontSize=12;fontColor=default;labelBackgroundColor=none;startArrow=none;startFill=0;startSize=5;endArrow=classicThin;endFill=1;endSize=5;" parent="1" source="2c924340bb9dbf6c-55" target="UxoyAw1FXWE8Ad-K0um6-52" edge="1">
          <mxGeometry relative="1" as="geometry" />
        </mxCell>
        <mxCell id="2c924340bb9dbf6c-55" value="Work Tasks" style="whiteSpace=wrap;html=1;rounded=1;shadow=1;comic=0;labelBackgroundColor=none;strokeWidth=2;fontFamily=Verdana;fontSize=12;align=center;arcSize=50;" parent="1" vertex="1">
          <mxGeometry x="480" y="-10" width="100" height="20" as="geometry" />
        </mxCell>
        <mxCell id="2c924340bb9dbf6c-61" value="" style="edgeStyle=none;rounded=1;html=1;labelBackgroundColor=none;startArrow=none;startFill=0;startSize=5;endArrow=classicThin;endFill=1;endSize=5;jettySize=auto;orthogonalLoop=1;strokeColor=#B3B3B3;strokeWidth=1;fontFamily=Verdana;fontSize=12" parent="1" source="2c924340bb9dbf6c-2" target="2c924340bb9dbf6c-55" edge="1">
          <mxGeometry relative="1" as="geometry" />
        </mxCell>
        <mxCell id="2c924340bb9dbf6c-3" value="&lt;div&gt;Home&lt;/div&gt;" style="ellipse;whiteSpace=wrap;html=1;rounded=1;shadow=1;comic=0;labelBackgroundColor=none;strokeWidth=2;fontFamily=Verdana;fontSize=12;align=center;" parent="1" vertex="1">
          <mxGeometry x="955" y="-80" width="120" height="80" as="geometry" />
        </mxCell>
        <mxCell id="2c924340bb9dbf6c-11" value="Sleep" style="whiteSpace=wrap;html=1;rounded=1;shadow=1;comic=0;labelBackgroundColor=none;strokeWidth=2;fontFamily=Verdana;fontSize=12;align=center;arcSize=50;" parent="1" vertex="1">
          <mxGeometry x="1000" y="70" width="100" height="20" as="geometry" />
        </mxCell>
        <mxCell id="2c924340bb9dbf6c-14" value="Eat" style="whiteSpace=wrap;html=1;rounded=1;shadow=1;comic=0;labelBackgroundColor=none;strokeWidth=2;fontFamily=Verdana;fontSize=12;align=center;arcSize=50;" parent="1" vertex="1">
          <mxGeometry x="1030" y="-120" width="100" height="20" as="geometry" />
        </mxCell>
        <mxCell id="UxoyAw1FXWE8Ad-K0um6-10" style="edgeStyle=none;rounded=1;orthogonalLoop=1;jettySize=auto;html=1;entryX=0.5;entryY=1;entryDx=0;entryDy=0;strokeColor=#B3B3B3;strokeWidth=1;align=center;verticalAlign=middle;fontFamily=Verdana;fontSize=12;fontColor=default;labelBackgroundColor=none;startArrow=none;startFill=0;startSize=5;endArrow=classicThin;endFill=1;endSize=5;" parent="1" source="2c924340bb9dbf6c-15" target="UxoyAw1FXWE8Ad-K0um6-7" edge="1">
          <mxGeometry relative="1" as="geometry" />
        </mxCell>
        <mxCell id="2c924340bb9dbf6c-15" value="Chores" style="whiteSpace=wrap;html=1;rounded=1;shadow=1;comic=0;labelBackgroundColor=none;strokeWidth=2;fontFamily=Verdana;fontSize=12;align=center;arcSize=50;" parent="1" vertex="1">
          <mxGeometry x="850" y="-130" width="100" height="20" as="geometry" />
        </mxCell>
        <mxCell id="UxoyAw1FXWE8Ad-K0um6-29" style="edgeStyle=none;rounded=1;orthogonalLoop=1;jettySize=auto;html=1;strokeColor=#B3B3B3;strokeWidth=1;align=center;verticalAlign=middle;fontFamily=Verdana;fontSize=12;fontColor=default;labelBackgroundColor=none;startArrow=none;startFill=0;startSize=5;endArrow=classicThin;endFill=1;endSize=5;" parent="1" source="2c924340bb9dbf6c-16" target="UxoyAw1FXWE8Ad-K0um6-28" edge="1">
          <mxGeometry relative="1" as="geometry" />
        </mxCell>
        <mxCell id="UxoyAw1FXWE8Ad-K0um6-31" style="edgeStyle=none;rounded=1;orthogonalLoop=1;jettySize=auto;html=1;strokeColor=#B3B3B3;strokeWidth=1;align=center;verticalAlign=middle;fontFamily=Verdana;fontSize=12;fontColor=default;labelBackgroundColor=none;startArrow=none;startFill=0;startSize=5;endArrow=classicThin;endFill=1;endSize=5;" parent="1" source="2c924340bb9dbf6c-16" target="UxoyAw1FXWE8Ad-K0um6-30" edge="1">
          <mxGeometry relative="1" as="geometry" />
        </mxCell>
        <mxCell id="UxoyAw1FXWE8Ad-K0um6-33" style="edgeStyle=none;rounded=1;orthogonalLoop=1;jettySize=auto;html=1;strokeColor=#B3B3B3;strokeWidth=1;align=center;verticalAlign=middle;fontFamily=Verdana;fontSize=12;fontColor=default;labelBackgroundColor=none;startArrow=none;startFill=0;startSize=5;endArrow=classicThin;endFill=1;endSize=5;" parent="1" source="2c924340bb9dbf6c-16" target="UxoyAw1FXWE8Ad-K0um6-32" edge="1">
          <mxGeometry relative="1" as="geometry" />
        </mxCell>
        <mxCell id="2c924340bb9dbf6c-16" value="Socialize" style="whiteSpace=wrap;html=1;rounded=1;shadow=1;comic=0;labelBackgroundColor=none;strokeWidth=2;fontFamily=Verdana;fontSize=12;align=center;arcSize=50;" parent="1" vertex="1">
          <mxGeometry x="1150" y="-50" width="100" height="20" as="geometry" />
        </mxCell>
        <mxCell id="2c924340bb9dbf6c-43" value="" style="edgeStyle=none;rounded=1;html=1;labelBackgroundColor=none;startArrow=none;startFill=0;startSize=5;endArrow=classicThin;endFill=1;endSize=5;jettySize=auto;orthogonalLoop=1;strokeColor=#B3B3B3;strokeWidth=1;fontFamily=Verdana;fontSize=12" parent="1" source="2c924340bb9dbf6c-3" target="2c924340bb9dbf6c-16" edge="1">
          <mxGeometry relative="1" as="geometry" />
        </mxCell>
        <mxCell id="2c924340bb9dbf6c-44" value="" style="edgeStyle=none;rounded=1;html=1;labelBackgroundColor=none;startArrow=none;startFill=0;startSize=5;endArrow=classicThin;endFill=1;endSize=5;jettySize=auto;orthogonalLoop=1;strokeColor=#B3B3B3;strokeWidth=1;fontFamily=Verdana;fontSize=12" parent="1" source="2c924340bb9dbf6c-3" target="2c924340bb9dbf6c-15" edge="1">
          <mxGeometry relative="1" as="geometry" />
        </mxCell>
        <mxCell id="2c924340bb9dbf6c-45" value="" style="edgeStyle=none;rounded=1;html=1;labelBackgroundColor=none;startArrow=none;startFill=0;startSize=5;endArrow=classicThin;endFill=1;endSize=5;jettySize=auto;orthogonalLoop=1;strokeColor=#B3B3B3;strokeWidth=1;fontFamily=Verdana;fontSize=12" parent="1" source="2c924340bb9dbf6c-3" target="2c924340bb9dbf6c-14" edge="1">
          <mxGeometry relative="1" as="geometry" />
        </mxCell>
        <mxCell id="2c924340bb9dbf6c-46" value="" style="edgeStyle=none;rounded=1;html=1;labelBackgroundColor=none;startArrow=none;startFill=0;startSize=5;endArrow=classicThin;endFill=1;endSize=5;jettySize=auto;orthogonalLoop=1;strokeColor=#B3B3B3;strokeWidth=1;fontFamily=Verdana;fontSize=12" parent="1" source="2c924340bb9dbf6c-3" target="2c924340bb9dbf6c-11" edge="1">
          <mxGeometry x="0.0124" relative="1" as="geometry">
            <mxPoint as="offset" />
          </mxGeometry>
        </mxCell>
        <mxCell id="UxoyAw1FXWE8Ad-K0um6-7" value="Laundry" style="whiteSpace=wrap;html=1;rounded=1;shadow=1;comic=0;labelBackgroundColor=none;strokeWidth=2;fontFamily=Verdana;fontSize=12;align=center;arcSize=50;" parent="1" vertex="1">
          <mxGeometry x="790" y="-190" width="100" height="20" as="geometry" />
        </mxCell>
        <mxCell id="UxoyAw1FXWE8Ad-K0um6-13" value="Shopping" style="whiteSpace=wrap;html=1;rounded=1;shadow=1;comic=0;labelBackgroundColor=none;strokeWidth=2;fontFamily=Verdana;fontSize=12;align=center;arcSize=50;" parent="1" vertex="1">
          <mxGeometry x="1080" y="515" width="100" height="20" as="geometry" />
        </mxCell>
        <mxCell id="UxoyAw1FXWE8Ad-K0um6-16" value="Circus" style="whiteSpace=wrap;html=1;rounded=1;shadow=1;comic=0;labelBackgroundColor=none;strokeWidth=2;fontFamily=Verdana;fontSize=12;align=center;arcSize=50;" parent="1" vertex="1">
          <mxGeometry x="1070" y="610" width="100" height="20" as="geometry" />
        </mxCell>
        <mxCell id="UxoyAw1FXWE8Ad-K0um6-18" value="Baseball" style="whiteSpace=wrap;html=1;rounded=1;shadow=1;comic=0;labelBackgroundColor=none;strokeWidth=2;fontFamily=Verdana;fontSize=12;align=center;arcSize=50;" parent="1" vertex="1">
          <mxGeometry x="1380" y="500" width="100" height="20" as="geometry" />
        </mxCell>
        <mxCell id="UxoyAw1FXWE8Ad-K0um6-21" value="Pie-eating Contest" style="whiteSpace=wrap;html=1;rounded=1;shadow=1;comic=0;labelBackgroundColor=none;strokeWidth=2;fontFamily=Verdana;fontSize=12;align=center;arcSize=50;" parent="1" vertex="1">
          <mxGeometry x="1450" y="610" width="100" height="30" as="geometry" />
        </mxCell>
        <mxCell id="UxoyAw1FXWE8Ad-K0um6-23" value="Speak-easy" style="whiteSpace=wrap;html=1;rounded=1;shadow=1;comic=0;labelBackgroundColor=none;strokeWidth=2;fontFamily=Verdana;fontSize=12;align=center;arcSize=50;" parent="1" vertex="1">
          <mxGeometry x="1380" y="680" width="100" height="20" as="geometry" />
        </mxCell>
        <mxCell id="UxoyAw1FXWE8Ad-K0um6-25" value="Movies" style="whiteSpace=wrap;html=1;rounded=1;shadow=1;comic=0;labelBackgroundColor=none;strokeWidth=2;fontFamily=Verdana;fontSize=12;align=center;arcSize=50;" parent="1" vertex="1">
          <mxGeometry x="1230" y="710" width="100" height="20" as="geometry" />
        </mxCell>
        <mxCell id="UxoyAw1FXWE8Ad-K0um6-28" value="Board Games" style="whiteSpace=wrap;html=1;rounded=1;shadow=1;comic=0;labelBackgroundColor=none;strokeWidth=2;fontFamily=Verdana;fontSize=12;align=center;arcSize=50;" parent="1" vertex="1">
          <mxGeometry x="1170" y="30" width="100" height="20" as="geometry" />
        </mxCell>
        <mxCell id="UxoyAw1FXWE8Ad-K0um6-30" value="Radio" style="whiteSpace=wrap;html=1;rounded=1;shadow=1;comic=0;labelBackgroundColor=none;strokeWidth=2;fontFamily=Verdana;fontSize=12;align=center;arcSize=50;" parent="1" vertex="1">
          <mxGeometry x="1180" y="-130" width="100" height="20" as="geometry" />
        </mxCell>
        <mxCell id="UxoyAw1FXWE8Ad-K0um6-32" value="Reading" style="whiteSpace=wrap;html=1;rounded=1;shadow=1;comic=0;labelBackgroundColor=none;strokeWidth=2;fontFamily=Verdana;fontSize=12;align=center;arcSize=50;" parent="1" vertex="1">
          <mxGeometry x="1300" y="-50" width="100" height="20" as="geometry" />
        </mxCell>
        <mxCell id="UxoyAw1FXWE8Ad-K0um6-34" value="Saw Mill" style="whiteSpace=wrap;html=1;rounded=1;shadow=1;comic=0;labelBackgroundColor=none;strokeWidth=2;fontFamily=Verdana;fontSize=12;align=center;arcSize=50;" parent="1" vertex="1">
          <mxGeometry x="360" y="-60" width="100" height="20" as="geometry" />
        </mxCell>
        <mxCell id="UxoyAw1FXWE8Ad-K0um6-36" value="Farm" style="whiteSpace=wrap;html=1;rounded=1;shadow=1;comic=0;labelBackgroundColor=none;strokeWidth=2;fontFamily=Verdana;fontSize=12;align=center;arcSize=50;" parent="1" vertex="1">
          <mxGeometry x="550" y="-80" width="100" height="20" as="geometry" />
        </mxCell>
        <mxCell id="UxoyAw1FXWE8Ad-K0um6-38" value="Golf Course" style="whiteSpace=wrap;html=1;rounded=1;shadow=1;comic=0;labelBackgroundColor=none;strokeWidth=2;fontFamily=Verdana;fontSize=12;align=center;arcSize=50;" parent="1" vertex="1">
          <mxGeometry x="610" y="-10" width="100" height="20" as="geometry" />
        </mxCell>
        <mxCell id="UxoyAw1FXWE8Ad-K0um6-40" value="Gambling" style="whiteSpace=wrap;html=1;rounded=1;shadow=1;comic=0;labelBackgroundColor=none;strokeWidth=2;fontFamily=Verdana;fontSize=12;align=center;arcSize=50;" parent="1" vertex="1">
          <mxGeometry x="1440" y="560" width="100" height="20" as="geometry" />
        </mxCell>
        <mxCell id="UxoyAw1FXWE8Ad-K0um6-42" value="Golf" style="whiteSpace=wrap;html=1;rounded=1;shadow=1;comic=0;labelBackgroundColor=none;strokeWidth=2;fontFamily=Verdana;fontSize=12;align=center;arcSize=50;" parent="1" vertex="1">
          <mxGeometry x="1150" y="450" width="100" height="20" as="geometry" />
        </mxCell>
        <mxCell id="UxoyAw1FXWE8Ad-K0um6-44" value="Beach" style="whiteSpace=wrap;html=1;rounded=1;shadow=1;comic=0;labelBackgroundColor=none;strokeWidth=2;fontFamily=Verdana;fontSize=12;align=center;arcSize=50;" parent="1" vertex="1">
          <mxGeometry x="1300" y="480" width="100" height="20" as="geometry" />
        </mxCell>
        <mxCell id="mSaFIu4NPNJzYI9R8o-n-7" style="edgeStyle=none;rounded=1;orthogonalLoop=1;jettySize=auto;html=1;strokeColor=#B3B3B3;strokeWidth=1;align=center;verticalAlign=middle;fontFamily=Verdana;fontSize=12;fontColor=default;labelBackgroundColor=none;startArrow=none;startFill=0;startSize=5;endArrow=classicThin;endFill=1;endSize=5;" edge="1" parent="1" source="UxoyAw1FXWE8Ad-K0um6-46" target="mSaFIu4NPNJzYI9R8o-n-6">
          <mxGeometry relative="1" as="geometry" />
        </mxCell>
        <mxCell id="mSaFIu4NPNJzYI9R8o-n-9" style="edgeStyle=none;rounded=1;orthogonalLoop=1;jettySize=auto;html=1;strokeColor=#B3B3B3;strokeWidth=1;align=center;verticalAlign=middle;fontFamily=Verdana;fontSize=12;fontColor=default;labelBackgroundColor=none;startArrow=none;startFill=0;startSize=5;endArrow=classicThin;endFill=1;endSize=5;" edge="1" parent="1" source="UxoyAw1FXWE8Ad-K0um6-46" target="mSaFIu4NPNJzYI9R8o-n-8">
          <mxGeometry relative="1" as="geometry" />
        </mxCell>
        <mxCell id="mSaFIu4NPNJzYI9R8o-n-11" style="edgeStyle=none;rounded=1;orthogonalLoop=1;jettySize=auto;html=1;strokeColor=#B3B3B3;strokeWidth=1;align=center;verticalAlign=middle;fontFamily=Verdana;fontSize=12;fontColor=default;labelBackgroundColor=none;startArrow=none;startFill=0;startSize=5;endArrow=classicThin;endFill=1;endSize=5;" edge="1" parent="1" source="UxoyAw1FXWE8Ad-K0um6-46" target="mSaFIu4NPNJzYI9R8o-n-10">
          <mxGeometry relative="1" as="geometry" />
        </mxCell>
        <mxCell id="UxoyAw1FXWE8Ad-K0um6-46" value="&lt;div&gt;Church&lt;/div&gt;&lt;div&gt;(Sunday)&lt;/div&gt;" style="ellipse;whiteSpace=wrap;html=1;rounded=1;shadow=1;comic=0;labelBackgroundColor=none;strokeWidth=2;fontFamily=Verdana;fontSize=12;align=center;" parent="1" vertex="1">
          <mxGeometry x="1480" y="235" width="120" height="80" as="geometry" />
        </mxCell>
        <mxCell id="UxoyAw1FXWE8Ad-K0um6-48" value="Womens Club" style="whiteSpace=wrap;html=1;rounded=1;shadow=1;comic=0;labelBackgroundColor=none;strokeWidth=2;fontFamily=Verdana;fontSize=12;align=center;arcSize=50;" parent="1" vertex="1">
          <mxGeometry x="1090" y="690" width="100" height="20" as="geometry" />
        </mxCell>
        <mxCell id="UxoyAw1FXWE8Ad-K0um6-50" value="&lt;div&gt;Setting:&lt;/div&gt;&lt;div&gt;1930-1932 Redmond, WA&lt;br&gt;&lt;/div&gt;&lt;div&gt;&lt;br&gt;&lt;/div&gt;&lt;div&gt;Prohibition:&lt;/div&gt;&lt;div&gt;1920-1933&lt;br&gt;&lt;/div&gt;&lt;div&gt;Great Depression:&lt;/div&gt;&lt;div&gt;1929-1939&lt;br&gt;&lt;/div&gt;" style="ellipse;whiteSpace=wrap;html=1;rounded=1;shadow=1;comic=0;labelBackgroundColor=none;strokeWidth=2;fontFamily=Verdana;fontSize=12;align=center;" parent="1" vertex="1">
          <mxGeometry x="60" y="300" width="180" height="130" as="geometry" />
        </mxCell>
        <mxCell id="UxoyAw1FXWE8Ad-K0um6-52" value="Crime" style="whiteSpace=wrap;html=1;rounded=1;shadow=1;comic=0;labelBackgroundColor=none;strokeWidth=2;fontFamily=Verdana;fontSize=12;align=center;arcSize=50;" parent="1" vertex="1">
          <mxGeometry x="560" y="50" width="100" height="20" as="geometry" />
        </mxCell>
        <mxCell id="mSaFIu4NPNJzYI9R8o-n-6" value="Sermon" style="whiteSpace=wrap;html=1;rounded=1;shadow=1;comic=0;labelBackgroundColor=none;strokeWidth=2;fontFamily=Verdana;fontSize=12;align=center;arcSize=50;" vertex="1" parent="1">
          <mxGeometry x="1550" y="165" width="100" height="20" as="geometry" />
        </mxCell>
        <mxCell id="mSaFIu4NPNJzYI9R8o-n-8" value="Charity" style="whiteSpace=wrap;html=1;rounded=1;shadow=1;comic=0;labelBackgroundColor=none;strokeWidth=2;fontFamily=Verdana;fontSize=12;align=center;arcSize=50;" vertex="1" parent="1">
          <mxGeometry x="1400" y="165" width="100" height="20" as="geometry" />
        </mxCell>
        <mxCell id="mSaFIu4NPNJzYI9R8o-n-10" value="Socialize" style="whiteSpace=wrap;html=1;rounded=1;shadow=1;comic=0;labelBackgroundColor=none;strokeWidth=2;fontFamily=Verdana;fontSize=12;align=center;arcSize=50;" vertex="1" parent="1">
          <mxGeometry x="1480" y="355" width="100" height="20" as="geometry" />
        </mxCell>
        <mxCell id="mSaFIu4NPNJzYI9R8o-n-17" style="edgeStyle=none;rounded=1;orthogonalLoop=1;jettySize=auto;html=1;strokeColor=#B3B3B3;strokeWidth=1;align=center;verticalAlign=middle;fontFamily=Verdana;fontSize=12;fontColor=default;labelBackgroundColor=none;startArrow=none;startFill=0;startSize=5;endArrow=classicThin;endFill=1;endSize=5;" edge="1" parent="1" source="mSaFIu4NPNJzYI9R8o-n-13" target="mSaFIu4NPNJzYI9R8o-n-16">
          <mxGeometry relative="1" as="geometry">
            <mxPoint x="510" y="650" as="targetPoint" />
          </mxGeometry>
        </mxCell>
        <mxCell id="mSaFIu4NPNJzYI9R8o-n-31" style="edgeStyle=none;rounded=1;orthogonalLoop=1;jettySize=auto;html=1;strokeColor=#B3B3B3;strokeWidth=1;align=center;verticalAlign=middle;fontFamily=Verdana;fontSize=12;fontColor=default;labelBackgroundColor=none;startArrow=none;startFill=0;startSize=5;endArrow=classicThin;endFill=1;endSize=5;" edge="1" parent="1" source="mSaFIu4NPNJzYI9R8o-n-13" target="mSaFIu4NPNJzYI9R8o-n-18">
          <mxGeometry relative="1" as="geometry" />
        </mxCell>
        <mxCell id="mSaFIu4NPNJzYI9R8o-n-32" style="edgeStyle=none;rounded=1;orthogonalLoop=1;jettySize=auto;html=1;strokeColor=#B3B3B3;strokeWidth=1;align=center;verticalAlign=middle;fontFamily=Verdana;fontSize=12;fontColor=default;labelBackgroundColor=none;startArrow=none;startFill=0;startSize=5;endArrow=classicThin;endFill=1;endSize=5;" edge="1" parent="1" source="mSaFIu4NPNJzYI9R8o-n-13" target="mSaFIu4NPNJzYI9R8o-n-30">
          <mxGeometry relative="1" as="geometry" />
        </mxCell>
        <mxCell id="mSaFIu4NPNJzYI9R8o-n-33" style="edgeStyle=none;rounded=1;orthogonalLoop=1;jettySize=auto;html=1;strokeColor=#B3B3B3;strokeWidth=1;align=center;verticalAlign=middle;fontFamily=Verdana;fontSize=12;fontColor=default;labelBackgroundColor=none;startArrow=none;startFill=0;startSize=5;endArrow=classicThin;endFill=1;endSize=5;" edge="1" parent="1" source="mSaFIu4NPNJzYI9R8o-n-13" target="mSaFIu4NPNJzYI9R8o-n-22">
          <mxGeometry relative="1" as="geometry" />
        </mxCell>
        <mxCell id="mSaFIu4NPNJzYI9R8o-n-34" style="edgeStyle=none;rounded=1;orthogonalLoop=1;jettySize=auto;html=1;strokeColor=#B3B3B3;strokeWidth=1;align=center;verticalAlign=middle;fontFamily=Verdana;fontSize=12;fontColor=default;labelBackgroundColor=none;startArrow=none;startFill=0;startSize=5;endArrow=classicThin;endFill=1;endSize=5;" edge="1" parent="1" source="mSaFIu4NPNJzYI9R8o-n-13" target="mSaFIu4NPNJzYI9R8o-n-21">
          <mxGeometry relative="1" as="geometry" />
        </mxCell>
        <mxCell id="mSaFIu4NPNJzYI9R8o-n-35" style="edgeStyle=none;rounded=1;orthogonalLoop=1;jettySize=auto;html=1;strokeColor=#B3B3B3;strokeWidth=1;align=center;verticalAlign=middle;fontFamily=Verdana;fontSize=12;fontColor=default;labelBackgroundColor=none;startArrow=none;startFill=0;startSize=5;endArrow=classicThin;endFill=1;endSize=5;" edge="1" parent="1" source="mSaFIu4NPNJzYI9R8o-n-13" target="mSaFIu4NPNJzYI9R8o-n-20">
          <mxGeometry relative="1" as="geometry" />
        </mxCell>
        <mxCell id="mSaFIu4NPNJzYI9R8o-n-36" style="edgeStyle=none;rounded=1;orthogonalLoop=1;jettySize=auto;html=1;strokeColor=#B3B3B3;strokeWidth=1;align=center;verticalAlign=middle;fontFamily=Verdana;fontSize=12;fontColor=default;labelBackgroundColor=none;startArrow=none;startFill=0;startSize=5;endArrow=classicThin;endFill=1;endSize=5;" edge="1" parent="1" source="mSaFIu4NPNJzYI9R8o-n-13" target="mSaFIu4NPNJzYI9R8o-n-29">
          <mxGeometry relative="1" as="geometry" />
        </mxCell>
        <mxCell id="mSaFIu4NPNJzYI9R8o-n-37" style="edgeStyle=none;rounded=1;orthogonalLoop=1;jettySize=auto;html=1;strokeColor=#B3B3B3;strokeWidth=1;align=center;verticalAlign=middle;fontFamily=Verdana;fontSize=12;fontColor=default;labelBackgroundColor=none;startArrow=none;startFill=0;startSize=5;endArrow=classicThin;endFill=1;endSize=5;" edge="1" parent="1" source="mSaFIu4NPNJzYI9R8o-n-13" target="mSaFIu4NPNJzYI9R8o-n-28">
          <mxGeometry relative="1" as="geometry" />
        </mxCell>
        <mxCell id="mSaFIu4NPNJzYI9R8o-n-38" style="edgeStyle=none;rounded=1;orthogonalLoop=1;jettySize=auto;html=1;strokeColor=#B3B3B3;strokeWidth=1;align=center;verticalAlign=middle;fontFamily=Verdana;fontSize=12;fontColor=default;labelBackgroundColor=none;startArrow=none;startFill=0;startSize=5;endArrow=classicThin;endFill=1;endSize=5;" edge="1" parent="1" source="mSaFIu4NPNJzYI9R8o-n-13" target="mSaFIu4NPNJzYI9R8o-n-27">
          <mxGeometry relative="1" as="geometry" />
        </mxCell>
        <mxCell id="mSaFIu4NPNJzYI9R8o-n-39" style="edgeStyle=none;rounded=1;orthogonalLoop=1;jettySize=auto;html=1;strokeColor=#B3B3B3;strokeWidth=1;align=center;verticalAlign=middle;fontFamily=Verdana;fontSize=12;fontColor=default;labelBackgroundColor=none;startArrow=none;startFill=0;startSize=5;endArrow=classicThin;endFill=1;endSize=5;" edge="1" parent="1" source="mSaFIu4NPNJzYI9R8o-n-13" target="mSaFIu4NPNJzYI9R8o-n-26">
          <mxGeometry relative="1" as="geometry" />
        </mxCell>
        <mxCell id="mSaFIu4NPNJzYI9R8o-n-40" style="edgeStyle=none;rounded=1;orthogonalLoop=1;jettySize=auto;html=1;strokeColor=#B3B3B3;strokeWidth=1;align=center;verticalAlign=middle;fontFamily=Verdana;fontSize=12;fontColor=default;labelBackgroundColor=none;startArrow=none;startFill=0;startSize=5;endArrow=classicThin;endFill=1;endSize=5;" edge="1" parent="1" source="mSaFIu4NPNJzYI9R8o-n-13" target="mSaFIu4NPNJzYI9R8o-n-25">
          <mxGeometry relative="1" as="geometry" />
        </mxCell>
        <mxCell id="mSaFIu4NPNJzYI9R8o-n-41" style="edgeStyle=none;rounded=1;orthogonalLoop=1;jettySize=auto;html=1;strokeColor=#B3B3B3;strokeWidth=1;align=center;verticalAlign=middle;fontFamily=Verdana;fontSize=12;fontColor=default;labelBackgroundColor=none;startArrow=none;startFill=0;startSize=5;endArrow=classicThin;endFill=1;endSize=5;" edge="1" parent="1" source="mSaFIu4NPNJzYI9R8o-n-13" target="mSaFIu4NPNJzYI9R8o-n-24">
          <mxGeometry relative="1" as="geometry" />
        </mxCell>
        <mxCell id="mSaFIu4NPNJzYI9R8o-n-42" style="edgeStyle=none;rounded=1;orthogonalLoop=1;jettySize=auto;html=1;strokeColor=#B3B3B3;strokeWidth=1;align=center;verticalAlign=middle;fontFamily=Verdana;fontSize=12;fontColor=default;labelBackgroundColor=none;startArrow=none;startFill=0;startSize=5;endArrow=classicThin;endFill=1;endSize=5;" edge="1" parent="1" source="mSaFIu4NPNJzYI9R8o-n-13" target="mSaFIu4NPNJzYI9R8o-n-23">
          <mxGeometry relative="1" as="geometry" />
        </mxCell>
        <mxCell id="mSaFIu4NPNJzYI9R8o-n-13" value="Crime" style="ellipse;whiteSpace=wrap;html=1;rounded=1;shadow=1;comic=0;labelBackgroundColor=none;strokeWidth=2;fontFamily=Verdana;fontSize=12;align=center;" vertex="1" parent="1">
          <mxGeometry x="460" y="505" width="120" height="80" as="geometry" />
        </mxCell>
        <mxCell id="mSaFIu4NPNJzYI9R8o-n-16" value="&lt;div&gt;Petty Larceny&lt;br&gt;&lt;/div&gt;" style="whiteSpace=wrap;html=1;rounded=1;shadow=1;comic=0;labelBackgroundColor=none;strokeWidth=2;fontFamily=Verdana;fontSize=12;align=center;arcSize=50;" vertex="1" parent="1">
          <mxGeometry x="330" y="585" width="100" height="20" as="geometry" />
        </mxCell>
        <mxCell id="mSaFIu4NPNJzYI9R8o-n-18" value="Assault" style="whiteSpace=wrap;html=1;rounded=1;shadow=1;comic=0;labelBackgroundColor=none;strokeWidth=2;fontFamily=Verdana;fontSize=12;align=center;arcSize=50;" vertex="1" parent="1">
          <mxGeometry x="390" y="645" width="100" height="20" as="geometry" />
        </mxCell>
        <mxCell id="mSaFIu4NPNJzYI9R8o-n-20" value="&lt;div&gt;Robbery&lt;/div&gt;&lt;div&gt;(mugging)&lt;br&gt;&lt;/div&gt;" style="whiteSpace=wrap;html=1;rounded=1;shadow=1;comic=0;labelBackgroundColor=none;strokeWidth=2;fontFamily=Verdana;fontSize=12;align=center;arcSize=50;" vertex="1" parent="1">
          <mxGeometry x="650" y="580" width="100" height="30" as="geometry" />
        </mxCell>
        <mxCell id="mSaFIu4NPNJzYI9R8o-n-21" value="Extortion" style="whiteSpace=wrap;html=1;rounded=1;shadow=1;comic=0;labelBackgroundColor=none;strokeWidth=2;fontFamily=Verdana;fontSize=12;align=center;arcSize=50;" vertex="1" parent="1">
          <mxGeometry x="580" y="635" width="100" height="20" as="geometry" />
        </mxCell>
        <mxCell id="mSaFIu4NPNJzYI9R8o-n-22" value="Rape" style="whiteSpace=wrap;html=1;rounded=1;shadow=1;comic=0;labelBackgroundColor=none;strokeWidth=2;fontFamily=Verdana;fontSize=12;align=center;arcSize=50;" vertex="1" parent="1">
          <mxGeometry x="530" y="675" width="100" height="20" as="geometry" />
        </mxCell>
        <mxCell id="mSaFIu4NPNJzYI9R8o-n-23" value="Extortion" style="whiteSpace=wrap;html=1;rounded=1;shadow=1;comic=0;labelBackgroundColor=none;strokeWidth=2;fontFamily=Verdana;fontSize=12;align=center;arcSize=50;" vertex="1" parent="1">
          <mxGeometry x="440" y="705" width="100" height="20" as="geometry" />
        </mxCell>
        <mxCell id="mSaFIu4NPNJzYI9R8o-n-24" value="Disorderly conduct" style="whiteSpace=wrap;html=1;rounded=1;shadow=1;comic=0;labelBackgroundColor=none;strokeWidth=2;fontFamily=Verdana;fontSize=12;align=center;arcSize=50;" vertex="1" parent="1">
          <mxGeometry x="310" y="465" width="100" height="30" as="geometry" />
        </mxCell>
        <mxCell id="mSaFIu4NPNJzYI9R8o-n-25" value="Bribery" style="whiteSpace=wrap;html=1;rounded=1;shadow=1;comic=0;labelBackgroundColor=none;strokeWidth=2;fontFamily=Verdana;fontSize=12;align=center;arcSize=50;" vertex="1" parent="1">
          <mxGeometry x="310" y="545" width="100" height="20" as="geometry" />
        </mxCell>
        <mxCell id="mSaFIu4NPNJzYI9R8o-n-26" value="Fraud" style="whiteSpace=wrap;html=1;rounded=1;shadow=1;comic=0;labelBackgroundColor=none;strokeWidth=2;fontFamily=Verdana;fontSize=12;align=center;arcSize=50;" vertex="1" parent="1">
          <mxGeometry x="380" y="440" width="100" height="20" as="geometry" />
        </mxCell>
        <mxCell id="mSaFIu4NPNJzYI9R8o-n-27" value="Burglary" style="whiteSpace=wrap;html=1;rounded=1;shadow=1;comic=0;labelBackgroundColor=none;strokeWidth=2;fontFamily=Verdana;fontSize=12;align=center;arcSize=50;" vertex="1" parent="1">
          <mxGeometry x="500" y="440" width="100" height="20" as="geometry" />
        </mxCell>
        <mxCell id="mSaFIu4NPNJzYI9R8o-n-28" value="Kidnapping" style="whiteSpace=wrap;html=1;rounded=1;shadow=1;comic=0;labelBackgroundColor=none;strokeWidth=2;fontFamily=Verdana;fontSize=12;align=center;arcSize=50;" vertex="1" parent="1">
          <mxGeometry x="630" y="465" width="100" height="20" as="geometry" />
        </mxCell>
        <mxCell id="mSaFIu4NPNJzYI9R8o-n-29" value="&lt;div&gt;Domestic&lt;/div&gt;&lt;div&gt;Violence&lt;br&gt;&lt;/div&gt;" style="whiteSpace=wrap;html=1;rounded=1;shadow=1;comic=0;labelBackgroundColor=none;strokeWidth=2;fontFamily=Verdana;fontSize=12;align=center;arcSize=50;" vertex="1" parent="1">
          <mxGeometry x="650" y="510" width="100" height="30" as="geometry" />
        </mxCell>
        <mxCell id="mSaFIu4NPNJzYI9R8o-n-30" value="Arson" style="whiteSpace=wrap;html=1;rounded=1;shadow=1;comic=0;labelBackgroundColor=none;strokeWidth=2;fontFamily=Verdana;fontSize=12;align=center;arcSize=50;" vertex="1" parent="1">
          <mxGeometry x="310" y="510" width="100" height="20" as="geometry" />
        </mxCell>
      </root>
    </mxGraphModel>
  </diagram>
</mxfile>
